# xmcd
#
# Track frame offsets: 
#        150
#        13015
#        31036
#        47938
#        60485
#        81372
#        95196
#        114490
#        127591
#        146300
#        157564
#        182108
#        192077
#        215728
#        224126
#        236577
#        253043
#        262424
#        281094
#
# Disc length: 4074 seconds
#
# Revision: 0
# Processed by: cddbd v1.5.2PL0 Copyright (c) Steve Scherf et al.
# Submitted via: ExactAudioCopy v1.3
#
DISCID=180fe813
DTITLE=Ñaco Goñi - 30 Años
DYEAR=2014
DGENRE=Blues
TTITLE0=Tribute To Carey Bell
TTITLE1=White Trash Blues
TTITLE2=Dices Que No Tengo Feeling
TTITLE3=Armonica Blues
TTITLE4=I'm Crazy About You
TTITLE5=The Stuff You Gotta Waych
TTITLE6=Armonica Boogie
TTITLE7=Rattlesnakin' Daddy
TTITLE8=From The Bottom
TTITLE9=Betica Stomp
TTITLE10=Flan de Queso
TTITLE11=Blowin' The Blues
TTITLE12=Bright Lights, Big City
TTITLE13=See That My Grave Is Kept Clean
TTITLE14=Lightnin' Boogie
TTITLE15=Blues With A Feeling
TTITLE16=Rag de Eliva
TTITLE17=You're So Fine
TTITLE18=@rmonet
EXTD=
EXTT0=
EXTT1=
EXTT2=
EXTT3=
EXTT4=
EXTT5=
EXTT6=
EXTT7=
EXTT8=
EXTT9=
EXTT10=
EXTT11=
EXTT12=
EXTT13=
EXTT14=
EXTT15=
EXTT16=
EXTT17=
EXTT18=
PLAYORDER=
